<svg xmlns="http://www.w3.org/2000/svg" xml:space="preserve" width="104.793mm" height="102.118mm" version="1.1" shape-rendering="geometricPrecision" text-rendering="geometricPrecision" image-rendering="optimizeQuality" fill-rule="evenodd" clip-rule="evenodd"
viewBox="0 0 10479.34 10211.8"
 xmlns:xlink="http://www.w3.org/1999/xlink"
 xmlns:xodm="http://www.corel.com/coreldraw/odm/2003">
 <g id="Layer_x0020_1">
  <metadata id="CorelCorpID_0Corel-Layer"/>
  <circle fill="none" stroke="black" stroke-width="70.56" stroke-linecap="round" stroke-linejoin="round" stroke-miterlimit="22.9256" cx="4805.21" cy="4814.37" r="4771.13"/>
  <polyline fill="none" stroke="black" stroke-width="52.92" stroke-linecap="round" stroke-linejoin="round" stroke-miterlimit="22.9256" points="9933.07,712.09 5340.3,5081.91 10468.15,10209.77 "/>
  <path fill="#663300" d="M8625.69 1956c597.01,796.67 950.65,1786.22 950.65,2858.37 0,1249.45 -480.28,2386.73 -1266.3,3237.29l347.08 347.07c874.66,-939.53 1409.71,-2199.46 1409.71,-3584.36 0,-1203.27 -403.91,-2312.2 -1083.54,-3198.61l-357.6 340.24z"/>
  <path fill="#CC3300" d="M9131.57 4814.37c0,-953.23 -308.28,-1834.46 -830.59,-2549.42l-294.93 280.62c454.83,640.5 722.22,1423.43 722.22,2268.8 0,1015.26 -385.66,1940.44 -1018.47,2637.04l285.47 285.48c705.66,-769.84 1136.3,-1795.89 1136.3,-2922.52z"/>
 </g>
</svg>
