<svg xmlns="http://www.w3.org/2000/svg" xml:space="preserve" width="207.366mm" height="127.388mm" version="1.1" shape-rendering="geometricPrecision" text-rendering="geometricPrecision" image-rendering="optimizeQuality" fill-rule="evenodd" clip-rule="evenodd"
viewBox="0 0 20736.64 12738.8"
 xmlns:xlink="http://www.w3.org/1999/xlink"
 xmlns:xodm="http://www.corel.com/coreldraw/odm/2003">
 <g id="Layer_x0020_1">
  <metadata id="CorelCorpID_0Corel-Layer"/>
  <path fill="#FF6666" stroke="black" stroke-width="105.83" stroke-linecap="round" stroke-linejoin="round" stroke-miterlimit="22.9256" d="M10364.97 58.92c1810.39,0 3442.66,761.84 4594.33,1982.15l1386.74 0c2383.89,0 4334.33,1950.44 4334.33,4334.33 0,2383.89 -1950.44,4334.33 -4334.33,4334.33l-1386.74 0c-1151.67,1220.31 -2783.94,1982.15 -4594.33,1982.15 -1810.39,0 -3442.66,-761.84 -4594.33,-1982.15l-1386.74 0c-2383.89,0 -4334.33,-1950.44 -4334.33,-4334.33 0,-2383.89 1950.44,-4334.33 4334.33,-4334.33l1386.74 0c1151.67,-1220.31 2783.94,-1982.15 4594.33,-1982.15z"/>
  <path fill="#FF9999" d="M10364.97 2802.78c1023.96,0 1947.18,430.9 2598.57,1121.11l784.34 0c1348.34,0 2451.51,1103.17 2451.51,2451.51 0,1348.34 -1103.17,2451.51 -2451.51,2451.51l-784.34 0c-651.39,690.21 -1574.61,1121.11 -2598.57,1121.11 -1023.96,0 -1947.18,-430.9 -2598.57,-1121.11l-784.34 0c-1348.34,0 -2451.51,-1103.17 -2451.51,-2451.51 0,-1348.34 1103.17,-2451.51 2451.51,-2451.51l784.34 0c651.39,-690.21 1574.61,-1121.11 2598.57,-1121.11z"/>
 </g>
</svg>
